<svg width="16" height="16" viewBox="0 0 16 16" fill="none" xmlns="http://www.w3.org/2000/svg">
<path fill-rule="evenodd" clip-rule="evenodd" d="M13 14C11.5 14 3 14 3 14C1.89543 14 1 13.1046 1 12V4C1 2.89543 1.89543 2 3 2H6.08579C6.351 2 6.60536 2.10536 6.79289 2.29289L8.5 4H13C14.1046 4 15 4.89543 15 6V12C15 13.1 14.1 14 13 14ZM3 3H6.08579L8.08579 5H13C13.5523 5 14 5.44772 14 6V12C14 12.5 13.5 13 13 13H3C2.44772 13 2 12.5523 2 12V4C2 3.44772 2.44772 3 3 3Z" fill="#686868" fill-opacity="0.5"/>
<path d="M6.08579 3H3C2.44772 3 2 3.44772 2 4V12C2 12.5523 2.44772 13 3 13H13C13.5 13 14 12.5 14 12V6C14 5.44772 13.5523 5 13 5H8.08579L6.08579 3Z" fill="#686868" fill-opacity="0.5"/>
<path fill-rule="evenodd" clip-rule="evenodd" d="M13 14C11.5 14 3 14 3 14C1.89543 14 1 13.1046 1 12V4C1 2.89543 1.89543 2 3 2H6.08579C6.351 2 6.60536 2.10536 6.79289 2.29289L8.5 4H13C14.1046 4 15 4.89543 15 6V12C15 13.1 14.1 14 13 14ZM3 3H6.08579L8.08579 5H13C13.5523 5 14 5.44772 14 6V12C14 12.5 13.5 13 13 13H3C2.44772 13 2 12.5523 2 12V4C2 3.44772 2.44772 3 3 3Z" fill="#D9D9D9"/>
<rect width="7.57336" height="7.57336" rx="1" transform="matrix(0.707086 -0.707127 0.707086 0.707127 5 10.3553)" fill="#D9D9D9"/>
<path d="M9.6478 6.82559C10.0383 6.43505 10.6713 6.43505 11.0619 6.82559L13.8841 9.64785C14.2746 10.0384 14.2746 10.6714 13.8841 11.0619L11.0619 13.8852C10.6713 14.2756 10.0383 14.2757 9.6478 13.8852L6.82553 11.0619C6.4351 10.6714 6.43504 10.0384 6.82553 9.64785L8.92612 7.54727L9.88998 8.51113C9.82186 8.63401 9.7836 8.77574 9.78354 8.92617C9.78354 9.28879 10.0093 9.59778 10.3275 9.72305V10.9867C10.0093 11.1119 9.78369 11.421 9.78354 11.7836C9.78354 12.257 10.1675 12.641 10.641 12.641C11.1143 12.6409 11.4984 12.257 11.4984 11.7836C11.4982 11.4112 11.26 11.0951 10.9281 10.977V9.73281C10.9721 9.71711 11.0146 9.69855 11.055 9.67617L11.5355 10.1566C11.5124 10.2186 11.4984 10.2849 11.4984 10.3549C11.4984 10.6705 11.7541 10.9271 12.0697 10.9271C12.3852 10.9271 12.641 10.6705 12.641 10.3549C12.6408 10.0395 12.3851 9.78367 12.0697 9.78359C12.0387 9.78359 12.0085 9.78765 11.9788 9.79238L11.4349 9.24844C11.4753 9.14899 11.4984 9.0401 11.4984 8.92617C11.4982 8.45296 11.1142 8.06979 10.641 8.06973C10.527 8.06973 10.4182 8.09184 10.3187 8.13223L9.32944 7.14297L9.6478 6.82559Z" fill="#DE4C36"/>
</svg>
