<svg width="16" height="16" viewBox="0 0 16 16" fill="none" xmlns="http://www.w3.org/2000/svg">
<g clip-path="url(#clip0_111_77)">
<path d="M14.2056 10.594L12.1899 9.43096V6.19073L8.66358 8.29327V12.2356L11.5483 10.5149L13.5171 11.6507L7.65675 15.2581V7.70147L14.2056 3.6712V10.594Z" fill="#707070"/>
<path d="M1.10694 10.594L3.12257 9.43096V6.19073L6.64893 8.29327V12.2356L3.76417 10.5149L1.79639 11.6507L7.65675 15.2581V7.70147L1.10694 3.6712V10.594Z" fill="#ACACAC"/>
<path d="M8.16893 0.42187L8.16854 2.9577L11.1826 4.67867L7.65636 6.69443L4.13019 4.67889L7.162 2.94716L7.16142 0.413023L1.10791 3.67145L7.65672 7.70161L14.2055 3.67138L8.16893 0.42187Z" fill="#D9D9D9"/>
</g>
<defs>
<clipPath id="clip0_111_77">
<rect width="16" height="16" fill="white"/>
</clipPath>
</defs>
</svg>
